<?xml version="1.0" encoding="utf-8"?>
<!-- Generator: Adobe Illustrator 19.2.1, SVG Export Plug-In . SVG Version: 6.00 Build 0)  -->
<svg version="1.1"
	 id="svg3040" inkscape:version="0.48.4 r9939" sodipodi:docname="Autobot logo.svg" xmlns:cc="http://creativecommons.org/ns#" xmlns:dc="http://purl.org/dc/elements/1.1/" xmlns:inkscape="http://www.inkscape.org/namespaces/inkscape" xmlns:rdf="http://www.w3.org/1999/02/22-rdf-syntax-ns#" xmlns:sodipodi="http://sodipodi.sourceforge.net/DTD/sodipodi-0.dtd" xmlns:svg="http://www.w3.org/2000/svg"
	 xmlns="http://www.w3.org/2000/svg" xmlns:xlink="http://www.w3.org/1999/xlink" x="0px" y="0px" viewBox="0 0 118.2 120.6" width="120" height="120"
	 style="enable-background:new 0 0 118.2 120.6;" xml:space="preserve">
<style type="text/css">
	.st0{fill:#C80000;}
</style>
<g id="layer1" transform="translate(-26.461794,-129.14032)" inkscape:groupmode="layer" inkscape:label="Layer 1">
	<g id="g3905" transform="translate(1,-97)">
		<g id="g4085">
			<path id="path4164" inkscape:connector-curvature="0" class="st0" d="M83.4,226.1c-24.7,0.1-38.7,7.6-38.7,7.6l3.4,10.2l36.4,16
				l36.4-16l3.4-10.2c0,0-13.9-7.5-38.7-7.6c-0.4,0-0.8,0-1.2,0C84.2,226.1,83.8,226.1,83.4,226.1L83.4,226.1z M25.5,230.3l7,38.9
				L48.7,281L73,281l-3.4-23.6L45,246.6L40,231.1C40,231.1,25.5,230.3,25.5,230.3z M143.6,230.3l-14.5,0.7l-5.1,15.6l-24.5,10.8
				L96.1,281l24.3-0.1l16.2-11.8L143.6,230.3z M83.7,237c0.3,0,0.6,0,0.8,0c9.1-0.1,13.8,2.8,13.8,2.8c-4.8,4.5-13.7,8-13.8,8
				c-0.1,0-9-3.5-13.8-8C70.8,239.9,75.2,237.1,83.7,237z M36.8,248l26,11.8l1,4.7l-26-11.6L36.8,248z M132.3,248l-1,4.9l-26,11.6
				l1-4.7L132.3,248z M38.6,258.4l26,11.8l1,4.7l-26-11.6L38.6,258.4z M130.5,258.4l-1,4.9l-26,11.6l1-4.7L130.5,258.4z M73.8,259.2
				l4.1,22.6v34.5h13.4v-34.5l4.1-22.6l-10.8,4.7L73.8,259.2z M33.2,274.2l4.2,55.3l21.6,8.9v-38.5l-13.8-7.8l-2.9-11.2L33.2,274.2z
				 M135.9,274.2l-9.1,6.7l-2.9,11.2l-13.8,7.8v38.5l21.6-8.9L135.9,274.2z M74.2,291.1l-11.3,8.5v40.5l7.5,2.9l3-17.1h22.4l3,17.1
				l7.5-2.9v-40.5l-11.3-8.5v29.1H74.2V291.1z M76.4,329.6l-2.9,17.1h11h11l-2.9-17.1H76.4z"/>
		</g>
	</g>
</g>
</svg>
